<svg width="110" height="110" viewBox="0 0 110 110" fill="none" xmlns="http://www.w3.org/2000/svg">
<circle cx="55" cy="55" r="55" fill="#3870FF"/>
<path fill-rule="evenodd" clip-rule="evenodd" d="M78.125 31.4792H68.0659C62.5103 31.4792 58.0067 35.9828 58.0067 41.5383V60.4438H68.0659C73.6214 60.4438 78.125 55.9402 78.125 50.3846V31.4792ZM68.0659 26.1737C62.7671 26.1737 58.0947 28.856 55.3327 32.9369C52.5706 28.8561 47.8983 26.1738 42.5995 26.1738H32.5403H27.2349V31.4792V74.8284C27.2349 83.3141 34.1138 90.1931 42.5995 90.1931C44.7209 90.1931 46.7419 89.7631 48.5801 88.9856C50.1259 88.3318 51.5425 87.4322 52.7808 86.3357C55.9601 83.5208 57.9643 79.4086 57.9643 74.8284L57.9641 74.7641V65.7493H58.0067H68.0659C76.5515 65.7493 83.4305 58.8703 83.4305 50.3846V31.4792V26.1737H78.125H68.0659ZM52.6587 63.2139V41.5384C52.6587 35.9829 48.155 31.4792 42.5995 31.4792H32.5403V63.2142C35.2357 60.8776 38.7525 59.4637 42.5996 59.4637C46.4466 59.4637 49.9634 60.8776 52.6587 63.2139ZM46.515 84.0971C47.5308 83.6675 48.4613 83.0757 49.2741 82.3543C51.3503 80.5116 52.6587 77.8228 52.6587 74.8284V74.7764C52.6307 69.2448 48.1378 64.7692 42.5996 64.7692C37.0441 64.7692 32.5405 69.2728 32.5405 74.8284C32.5405 80.3839 37.0441 84.8875 42.5996 84.8875C43.9885 84.8875 45.3116 84.6061 46.515 84.0971ZM45.8588 74.712C45.8588 76.5762 44.3475 78.0875 42.4833 78.0875C40.619 78.0875 39.1077 76.5762 39.1077 74.712C39.1077 72.8477 40.619 71.3364 42.4833 71.3364C44.3475 71.3364 45.8588 72.8477 45.8588 74.712ZM70.1861 78.0875C72.0504 78.0875 73.5617 76.5762 73.5617 74.712C73.5617 72.8477 72.0504 71.3364 70.1861 71.3364C68.3218 71.3364 66.8105 72.8477 66.8105 74.712C66.8105 76.5762 68.3218 78.0875 70.1861 78.0875Z" fill="white"/>
</svg>
